<svg xmlns="http://www.w3.org/2000/svg" viewBox="0 0 224 196" width="224" height="196" role="img" aria-label="Octopus pixel mascot — lavender">
  <title>Octopus mascot</title>
  <g shape-rendering="crispEdges">
    <rect x="42" y="28" width="14" height="14" fill="#CBA6F7"/>
    <rect x="56" y="28" width="14" height="14" fill="#CBA6F7"/>
    <rect x="70" y="28" width="14" height="14" fill="#CBA6F7"/>
    <rect x="84" y="28" width="14" height="14" fill="#CBA6F7"/>
    <rect x="98" y="28" width="14" height="14" fill="#CBA6F7"/>
    <rect x="112" y="28" width="14" height="14" fill="#CBA6F7"/>
    <rect x="126" y="28" width="14" height="14" fill="#CBA6F7"/>
    <rect x="140" y="28" width="14" height="14" fill="#CBA6F7"/>
    <rect x="154" y="28" width="14" height="14" fill="#CBA6F7"/>
    <rect x="168" y="28" width="14" height="14" fill="#CBA6F7"/>
    <rect x="42" y="42" width="14" height="14" fill="#CBA6F7"/>
    <rect x="56" y="42" width="14" height="14" fill="#CBA6F7"/>
    <rect x="70" y="42" width="14" height="14" fill="#CBA6F7"/>
    <rect x="84" y="42" width="14" height="14" fill="#CBA6F7"/>
    <rect x="98" y="42" width="14" height="14" fill="#CBA6F7"/>
    <rect x="112" y="42" width="14" height="14" fill="#CBA6F7"/>
    <rect x="126" y="42" width="14" height="14" fill="#CBA6F7"/>
    <rect x="140" y="42" width="14" height="14" fill="#CBA6F7"/>
    <rect x="154" y="42" width="14" height="14" fill="#CBA6F7"/>
    <rect x="168" y="42" width="14" height="14" fill="#CBA6F7"/>
    <rect x="28" y="56" width="14" height="14" fill="#CBA6F7"/>
    <rect x="42" y="56" width="14" height="14" fill="#CBA6F7"/>
    <rect x="56" y="56" width="14" height="14" fill="#CBA6F7"/>
    <rect x="70" y="56" width="14" height="14" fill="#CBA6F7"/>
    <rect x="84" y="56" width="14" height="14" fill="#CBA6F7"/>
    <rect x="98" y="56" width="14" height="14" fill="#CBA6F7"/>
    <rect x="112" y="56" width="14" height="14" fill="#CBA6F7"/>
    <rect x="126" y="56" width="14" height="14" fill="#CBA6F7"/>
    <rect x="140" y="56" width="14" height="14" fill="#CBA6F7"/>
    <rect x="154" y="56" width="14" height="14" fill="#CBA6F7"/>
    <rect x="168" y="56" width="14" height="14" fill="#CBA6F7"/>
    <rect x="182" y="56" width="14" height="14" fill="#CBA6F7"/>
    <rect x="28" y="70" width="14" height="14" fill="#CBA6F7"/>
    <rect x="42" y="70" width="14" height="14" fill="#CBA6F7"/>
    <rect x="56" y="70" width="14" height="14" fill="#CBA6F7"/>
    <rect x="70" y="70" width="14" height="14" fill="#1A1A1A"/>
    <rect x="84" y="70" width="14" height="14" fill="#1A1A1A"/>
    <rect x="98" y="70" width="14" height="14" fill="#CBA6F7"/>
    <rect x="112" y="70" width="14" height="14" fill="#CBA6F7"/>
    <rect x="126" y="70" width="14" height="14" fill="#CBA6F7"/>
    <rect x="140" y="70" width="14" height="14" fill="#1A1A1A"/>
    <rect x="154" y="70" width="14" height="14" fill="#1A1A1A"/>
    <rect x="168" y="70" width="14" height="14" fill="#CBA6F7"/>
    <rect x="182" y="70" width="14" height="14" fill="#CBA6F7"/>
    <rect x="28" y="84" width="14" height="14" fill="#CBA6F7"/>
    <rect x="42" y="84" width="14" height="14" fill="#CBA6F7"/>
    <rect x="56" y="84" width="14" height="14" fill="#CBA6F7"/>
    <rect x="70" y="84" width="14" height="14" fill="#1A1A1A"/>
    <rect x="84" y="84" width="14" height="14" fill="#1A1A1A"/>
    <rect x="98" y="84" width="14" height="14" fill="#CBA6F7"/>
    <rect x="112" y="84" width="14" height="14" fill="#CBA6F7"/>
    <rect x="126" y="84" width="14" height="14" fill="#CBA6F7"/>
    <rect x="140" y="84" width="14" height="14" fill="#1A1A1A"/>
    <rect x="154" y="84" width="14" height="14" fill="#1A1A1A"/>
    <rect x="168" y="84" width="14" height="14" fill="#CBA6F7"/>
    <rect x="182" y="84" width="14" height="14" fill="#CBA6F7"/>
    <rect x="28" y="98" width="14" height="14" fill="#CBA6F7"/>
    <rect x="42" y="98" width="14" height="14" fill="#CBA6F7"/>
    <rect x="56" y="98" width="14" height="14" fill="#CBA6F7"/>
    <rect x="70" y="98" width="14" height="14" fill="#CBA6F7"/>
    <rect x="84" y="98" width="14" height="14" fill="#CBA6F7"/>
    <rect x="98" y="98" width="14" height="14" fill="#CBA6F7"/>
    <rect x="112" y="98" width="14" height="14" fill="#CBA6F7"/>
    <rect x="126" y="98" width="14" height="14" fill="#CBA6F7"/>
    <rect x="140" y="98" width="14" height="14" fill="#CBA6F7"/>
    <rect x="154" y="98" width="14" height="14" fill="#CBA6F7"/>
    <rect x="168" y="98" width="14" height="14" fill="#CBA6F7"/>
    <rect x="182" y="98" width="14" height="14" fill="#CBA6F7"/>
    <rect x="28" y="112" width="14" height="14" fill="#CBA6F7"/>
    <rect x="42" y="112" width="14" height="14" fill="#CBA6F7"/>
    <rect x="56" y="112" width="14" height="14" fill="#CBA6F7"/>
    <rect x="70" y="112" width="14" height="14" fill="#CBA6F7"/>
    <rect x="84" y="112" width="14" height="14" fill="#CBA6F7"/>
    <rect x="98" y="112" width="14" height="14" fill="#CBA6F7"/>
    <rect x="112" y="112" width="14" height="14" fill="#CBA6F7"/>
    <rect x="126" y="112" width="14" height="14" fill="#CBA6F7"/>
    <rect x="140" y="112" width="14" height="14" fill="#CBA6F7"/>
    <rect x="154" y="112" width="14" height="14" fill="#CBA6F7"/>
    <rect x="168" y="112" width="14" height="14" fill="#CBA6F7"/>
    <rect x="182" y="112" width="14" height="14" fill="#CBA6F7"/>
    <rect x="28" y="126" width="14" height="14" fill="#CBA6F7"/>
    <rect x="42" y="126" width="14" height="14" fill="#CBA6F7"/>
    <rect x="70" y="126" width="14" height="14" fill="#CBA6F7"/>
    <rect x="84" y="126" width="14" height="14" fill="#CBA6F7"/>
    <rect x="112" y="126" width="14" height="14" fill="#CBA6F7"/>
    <rect x="126" y="126" width="14" height="14" fill="#CBA6F7"/>
    <rect x="154" y="126" width="14" height="14" fill="#CBA6F7"/>
    <rect x="168" y="126" width="14" height="14" fill="#CBA6F7"/>
    <rect x="28" y="140" width="14" height="14" fill="#CBA6F7"/>
    <rect x="42" y="140" width="14" height="14" fill="#CBA6F7"/>
    <rect x="70" y="140" width="14" height="14" fill="#CBA6F7"/>
    <rect x="84" y="140" width="14" height="14" fill="#CBA6F7"/>
    <rect x="112" y="140" width="14" height="14" fill="#CBA6F7"/>
    <rect x="126" y="140" width="14" height="14" fill="#CBA6F7"/>
    <rect x="154" y="140" width="14" height="14" fill="#CBA6F7"/>
    <rect x="168" y="140" width="14" height="14" fill="#CBA6F7"/>
    <rect x="28" y="154" width="14" height="14" fill="#CBA6F7"/>
    <rect x="42" y="154" width="14" height="14" fill="#CBA6F7"/>
    <rect x="70" y="154" width="14" height="14" fill="#CBA6F7"/>
    <rect x="84" y="154" width="14" height="14" fill="#CBA6F7"/>
    <rect x="112" y="154" width="14" height="14" fill="#CBA6F7"/>
    <rect x="126" y="154" width="14" height="14" fill="#CBA6F7"/>
    <rect x="154" y="154" width="14" height="14" fill="#CBA6F7"/>
    <rect x="168" y="154" width="14" height="14" fill="#CBA6F7"/>
  </g>
</svg>
